<svg width="1453" height="238" viewBox="0 0 1453 238" fill="none" xmlns="http://www.w3.org/2000/svg">
<path d="M67.4527 236.136C63.9748 236.297 60.5774 236.088 57.2766 235.493C53.9597 234.881 50.6589 234.156 47.3581 233.303C40.3539 231.468 34.1709 228.586 28.8091 224.674C27.9879 224.079 27.0702 223.483 26.0397 222.871C25.0092 222.227 24.0753 221.583 23.2702 220.939C21.2092 219.314 19.2448 217.688 17.4092 216.046C14.5271 213.341 11.9508 210.411 9.68052 207.224C7.39411 204.004 5.23651 200.768 3.17551 197.5C2.56365 196.47 2.04841 195.407 1.62977 194.28C1.19503 193.121 0.79249 192.027 0.406054 190.996C-0.238007 189.161 0.277242 187.503 1.9518 186.038C4.22211 184.203 6.47632 182.207 8.71443 180.049C10.9847 177.86 13.3678 175.96 15.8635 174.318C17.1033 173.288 18.2787 172.258 19.4058 171.227C20.5168 170.197 21.5956 169.167 22.6261 168.136C23.866 166.897 25.5244 166.06 27.5854 165.625C28.6159 165.239 29.3888 165.351 29.904 165.947C30.4193 166.559 30.8862 167.074 31.321 167.493C32.126 168.314 32.8345 169.199 33.4464 170.133C34.0904 171.034 34.7023 172 35.3141 173.03C37.1497 174.93 38.9531 176.862 40.7242 178.826C42.4793 180.758 44.492 182.351 46.7784 183.591C47.5835 183.977 48.2919 184.396 48.9038 184.814C49.5479 185.201 50.2724 185.619 51.0936 186.038C53.1546 186.859 55.1029 187.632 56.9546 188.356C58.7901 189.097 60.7545 189.757 62.8155 190.352C66.3256 191.608 69.9324 191.705 73.6357 190.674C75.906 189.869 78.1119 189 80.2695 188.099C82.4593 187.165 84.3593 185.845 86.0017 184.171C90.977 179.663 92.3296 174.109 90.0593 167.493C88.594 163.597 86.0178 160.393 82.3305 157.898C80.8653 156.868 79.3034 155.805 77.6289 154.678C75.9865 153.519 74.3603 152.537 72.734 151.716C70.2383 150.299 67.807 148.867 65.4562 147.402C63.0892 145.953 60.4647 144.81 57.5986 143.989C55.9241 143.393 54.2656 142.636 52.6394 141.735C50.997 140.801 49.3546 139.9 47.6801 139.03C45.3937 138 43.4454 136.97 41.8191 135.939C39.9675 134.523 38.0997 133.203 36.2158 131.947C34.3641 130.707 32.5125 129.371 30.6769 127.955C29.26 126.715 27.8108 125.427 26.3617 124.091C24.8964 122.723 23.3507 121.435 21.7245 120.227C20.0821 118.553 18.6974 116.863 17.5381 115.14C16.411 113.386 15.3483 111.47 14.3178 109.409C13.2873 107.139 12.289 104.708 11.3551 102.133C10.4534 99.5569 9.77713 97.0294 9.35849 94.5342C6.47632 80.1099 8.02207 66.2009 13.9957 52.8069C15.4449 49.3296 17.216 46.1582 19.277 43.2766C21.338 40.3628 23.399 37.4651 25.46 34.5834C27.9074 31.4925 30.6125 28.8202 33.5752 26.5342C36.57 24.2643 39.7259 22.091 43.0429 20.0304C44.0733 19.4348 45.0394 18.8713 45.9411 18.3562C46.875 17.841 47.7767 17.3742 48.6462 16.9395C52.7682 14.7179 57.0834 13.3012 61.5918 12.6895C66.1324 12.0456 70.673 11.627 75.1815 11.4016C80.7526 11.4016 86.0178 12.1421 90.9609 13.591C94.2617 14.412 97.466 15.4906 100.557 16.8107C103.649 18.1469 106.515 19.9499 109.188 22.2198C111.458 23.6848 113.664 25.2946 115.822 27.0493C118.011 28.7719 119.911 30.7681 121.554 33.038C122.794 34.5029 124.033 35.9035 125.289 37.2236C126.529 38.5598 127.56 40.0408 128.381 41.6668C129.83 44.7577 129.54 47.6554 127.479 50.3599C126.014 52.4206 124.516 54.3846 122.971 56.2198C121.425 58.0711 119.831 60.019 118.205 62.0796C117.335 63.1099 116.353 64.2046 115.242 65.3637C114.115 66.4906 113.052 67.5531 112.022 68.5834C110.991 69.6137 109.784 70.2899 108.415 70.5796C107.079 70.8855 105.597 71.0304 103.971 71.0304C103.746 71.0304 103.488 70.9499 103.198 70.7728C102.892 70.5635 102.522 70.3543 102.103 70.1289C101.073 69.0986 99.9778 68.181 98.8185 67.3599C97.6914 66.555 96.6287 65.7179 95.5982 64.8486C93.3118 62.4016 90.2203 60.663 86.3237 59.6327C83.0068 58.6024 79.706 58.055 76.4052 57.9584C73.1366 57.8296 69.8519 57.9906 66.551 58.4092C63.8782 58.4092 61.0926 59.6327 58.1783 62.0796C55.2961 64.1402 53.4444 66.5228 52.6394 69.2274C52.0275 72.109 51.8182 74.6848 51.9953 76.9546C52.4139 80.0455 53.6698 82.8145 55.7308 85.2615C57.5664 87.7567 60.2554 90.0266 63.7816 92.0872C66.0519 93.5039 68.4832 94.9528 71.0595 96.4016C73.6357 97.8666 76.0348 99.2993 78.2729 100.716C78.917 101.151 79.5772 101.473 80.2695 101.682C80.9941 101.859 81.6865 102.165 82.3305 102.583C84.6008 103.614 86.8551 104.644 89.0932 105.674C91.3635 106.705 93.5372 107.848 95.5982 109.087C97.8685 110.118 99.9778 111.148 101.91 112.178C103.874 113.208 105.79 114.545 107.642 116.171C108.673 116.992 109.703 117.829 110.734 118.682C111.764 119.503 112.698 120.324 113.567 121.129C114.373 121.741 115.049 122.401 115.564 123.125C116.079 123.866 116.739 124.445 117.561 124.864C119.396 126.28 121.135 127.826 122.778 129.5C124.452 131.142 125.805 133.09 126.835 135.36C127.254 136.39 127.769 137.421 128.381 138.451C128.977 139.481 129.492 140.511 129.927 141.542C130.522 143.393 131.183 145.309 131.923 147.273C132.648 149.205 133.115 151.104 133.34 152.939C136.206 167.589 134.66 181.595 128.703 194.989C127.238 198.305 125.515 201.46 123.55 204.455C121.618 207.417 119.509 210.347 117.239 213.212C114.952 216.303 112.279 218.943 109.188 221.133C106.096 223.29 103.005 225.495 99.9134 227.765C99.0922 228.2 98.2066 228.667 97.2727 229.182C96.371 229.697 95.405 230.261 94.3745 230.856C90.0271 232.917 85.6474 234.301 81.2356 235.042C76.8077 235.766 72.2188 236.136 67.4527 236.136Z" fill="#4D4D4D"/>
<path d="M160.24 87.1288C160.626 77.6468 160.852 68.2292 160.948 58.8599C161.077 49.4584 161.238 40.0408 161.464 30.5909C161.464 28.7074 161.544 26.7917 161.721 24.8599C161.931 22.8959 162.043 20.8675 162.043 18.8069C162.253 15.5067 164.12 14.0739 167.647 14.4925C169.064 14.4925 170.545 14.4925 172.091 14.4925C173.636 14.4925 175.134 14.3959 176.599 14.1705C178.048 14.1705 179.449 14.1705 180.785 14.1705C182.106 14.1705 183.507 14.1705 184.972 14.1705C186.807 14.1705 188.595 14.1705 190.317 14.1705C192.073 14.1705 193.892 14.1705 195.792 14.1705C196.984 14.1705 197.917 15.0076 198.561 16.6819C198.771 17.5029 198.916 18.4205 199.012 19.4508C199.093 20.4811 199.141 21.5114 199.141 22.5417C199.141 27.9186 199.141 33.3277 199.141 38.769C199.141 44.2264 199.045 49.6355 198.883 54.9963C198.883 63.2387 198.561 71.5938 197.917 80.0455C197.692 83.5228 197.483 87.0644 197.273 90.6705C197.096 94.2766 196.903 97.8504 196.694 101.36C196.468 105.867 196.307 110.359 196.178 114.818C196.082 119.245 196.05 123.817 196.05 128.534C196.05 131.85 196.082 135.263 196.178 138.773C196.307 142.25 196.372 145.76 196.372 149.269C196.581 158.767 198.014 168.33 200.687 177.989C201.54 181.305 203.086 184.492 205.324 187.583C208.029 191.286 211.539 193.749 215.887 194.989C216.482 195.214 217.143 195.375 217.883 195.504C218.608 195.6 219.268 195.826 219.88 196.212C222.15 197.081 224.324 197.468 226.385 197.371C228.446 197.242 230.507 196.856 232.568 196.212C233.373 196.051 234.194 195.858 235.015 195.633C235.82 195.423 236.658 195.101 237.527 194.667C239.975 193.475 241.971 191.801 243.517 189.644C245.063 187.455 246.238 185.12 247.059 182.625C249.12 176.234 250.666 169.537 251.696 162.534C252.55 157.173 253.274 151.909 253.886 146.758C254.482 141.606 254.788 136.455 254.788 131.303C254.788 129.081 254.933 126.779 255.239 124.413C255.577 122.014 255.851 119.68 256.076 117.394C256.237 114.947 256.334 112.436 256.334 109.86C256.334 107.284 256.334 104.757 256.334 102.261C256.543 91.9584 256.656 81.7197 256.656 71.5455C256.656 61.3391 256.656 51.1809 256.656 41.0872C256.656 37.5777 256.688 34.1809 256.785 30.9129C256.913 27.6127 257.074 24.3125 257.3 20.9962C257.509 17.1004 259.361 15.0398 262.839 14.8144C266.961 14.6051 271.018 14.3959 275.011 14.1705C279.037 13.9612 283.03 13.768 286.991 13.5909C287.377 13.5909 287.716 13.5909 288.021 13.5909C288.36 13.5909 288.73 13.5909 289.116 13.5909C292.208 13.5909 293.754 15.0398 293.754 17.9053C293.754 18.7264 293.754 19.4991 293.754 20.2235C293.754 20.964 293.754 21.7368 293.754 22.5417C293.528 33.6658 293.383 44.7415 293.303 55.769C293.206 66.8125 293.174 77.8883 293.174 88.9963C292.949 94.7595 292.852 100.426 292.852 105.996C292.852 111.534 292.739 117.201 292.53 122.996C292.304 130.595 291.886 138.258 291.242 145.985C290.63 153.712 289.728 161.504 288.537 169.36C286.862 178.858 284.688 188.018 282.032 196.856C281.001 200.382 279.649 203.795 277.974 207.095C276.332 210.363 274.383 213.534 272.113 216.625C270.471 219.12 268.523 221.245 266.252 223C263.966 224.723 261.615 226.413 259.168 228.087C255.432 230.148 251.503 231.999 247.381 233.625C243.259 235.299 239.025 236.33 234.693 236.716C231.811 237.135 228.865 237.247 225.87 237.038C222.907 236.813 219.976 236.603 217.11 236.394C215.645 236.217 214.244 236.024 212.924 235.814C211.588 235.589 210.299 235.38 209.06 235.171C199.785 232.724 191.751 227.991 184.972 220.939C183.507 219.313 182.106 217.688 180.785 216.046C179.449 214.371 178.274 212.729 177.243 211.087C168.355 196.888 163.09 181.321 161.464 164.402C161.238 161.536 161.029 158.799 160.82 156.224C160.594 153.648 160.401 151.008 160.24 148.303C160.014 144.826 159.853 141.252 159.725 137.549C159.628 133.814 159.692 130.192 159.918 126.667C159.918 120.099 159.95 113.53 160.047 106.962C160.175 100.362 160.24 93.7453 160.24 87.1288Z" fill="#4D4D4D"/>
<path d="M401.316 91.1213C402.346 89.4954 402.958 88.2719 403.183 87.4509C405.888 82.0901 408.529 76.8259 411.105 71.6744C413.682 66.5229 416.29 61.3713 418.963 56.2198C421.233 51.503 423.407 46.3515 425.468 40.7653C427.303 36.4348 429.107 32.0077 430.878 27.5001C432.633 22.9604 434.549 18.6138 436.61 14.4925C437.802 11.8363 439.959 10.5001 443.051 10.5001C447.382 10.5001 451.649 10.6128 455.868 10.8221C460.118 10.9992 464.401 11.4016 468.749 12.0456C471.019 12.2227 473.016 12.8827 474.738 14.0418C476.494 15.1687 477.701 17.1649 478.345 20.0304C478.941 22.3164 479.344 24.699 479.569 27.1782C479.778 29.6251 479.971 32.1043 480.149 34.5835C481.179 42.8259 481.582 51.1327 481.372 59.5039C481.195 67.8429 481.115 76.2302 481.115 84.6819C480.889 97.4319 480.728 110.166 480.599 122.868C480.503 135.537 480.358 148.239 480.149 160.989C480.149 165.931 480.245 170.938 480.471 175.993C480.68 181.064 480.889 186.07 481.115 190.996C481.324 197.178 481.437 203.424 481.437 209.735C481.437 216.013 481.517 222.227 481.694 228.409C481.694 230.647 481.082 232.192 479.891 233.046C479.021 233.432 478.088 233.818 477.057 234.205C476.027 234.623 474.996 234.945 473.966 235.171C472.323 235.38 470.584 235.38 468.749 235.171C465.867 234.784 462.92 234.736 459.925 235.042C456.914 235.332 453.871 235.493 450.779 235.493C449.958 235.702 449.04 235.815 448.01 235.815C446.979 235.815 445.949 235.815 444.919 235.815C443.067 235.589 441.473 234.816 440.152 233.496C438.816 232.176 438.156 230.566 438.156 228.667C437.93 221.68 437.769 214.79 437.641 207.996C437.544 201.171 437.512 194.264 437.512 187.262C437.286 174.512 437.19 161.858 437.19 149.269C437.19 136.696 437.19 124.123 437.19 111.534C437.19 111.148 436.997 110.536 436.61 109.667C436.385 109.892 436.175 110.166 435.966 110.504C435.741 110.81 435.644 111.148 435.644 111.534C434.823 113.595 434.002 115.768 433.197 118.038C432.375 120.324 431.458 122.594 430.427 124.864C429.783 126.506 429.042 128.196 428.237 129.951C427.416 131.722 426.595 133.525 425.79 135.36C425.146 136.777 424.566 138.226 424.051 139.674C423.536 141.139 422.859 142.572 422.054 143.989C421.233 145.663 420.348 147.386 419.414 149.14C418.512 150.863 417.626 152.553 416.773 154.227C415.356 156.9 413.955 159.669 412.587 162.534C411.25 165.416 409.882 168.201 408.465 170.905C408.239 171.726 407.821 172.499 407.177 173.224C406.565 173.964 406.082 174.624 405.695 175.22C404.826 176.685 403.473 177.377 401.638 177.28C399.786 177.152 398.353 176.572 397.322 175.542C396.067 173.868 395.036 172.258 394.231 170.712C393.41 169.167 392.589 167.686 391.784 166.269C390.318 163.404 388.853 160.458 387.404 157.447C385.987 154.453 384.538 151.507 383.089 148.625C380.641 143.264 378.162 138 375.682 132.849C373.186 127.697 371.013 122.352 369.177 116.815C368.952 115.575 368.549 114.4 367.953 113.273C367.341 112.114 366.826 110.826 366.408 109.409C365.973 110.021 365.764 110.568 365.764 111.083C365.764 111.599 365.764 112.082 365.764 112.5C365.764 118.263 365.764 124.027 365.764 129.822C365.764 135.585 365.764 141.445 365.764 147.402C365.586 159.556 365.441 171.775 365.313 184.042C365.216 196.277 365.071 208.495 364.862 220.682C364.862 222.099 364.862 223.644 364.862 225.318C364.862 226.96 364.862 228.586 364.862 230.212C364.427 233.947 362.479 235.815 359.001 235.815C356.714 235.815 354.331 235.702 351.852 235.493C349.404 235.267 346.925 235.171 344.445 235.171C343.624 234.945 342.642 234.849 341.482 234.849C340.355 234.849 339.293 234.849 338.262 234.849C335.976 234.849 333.593 234.881 331.113 234.977C328.666 235.106 326.218 235.171 323.771 235.171C322.096 235.171 320.744 234.35 319.713 232.724C318.892 230.888 318.586 229.021 318.812 227.121C319.021 219.314 319.166 211.506 319.262 203.682C319.343 195.826 319.488 188.099 319.713 180.5C319.713 174.318 319.906 168.185 320.293 162.083C320.711 155.998 320.84 149.849 320.679 143.667C320.454 139.546 320.293 135.344 320.164 131.046C320.067 126.715 320.035 122.481 320.035 118.36C320.035 111.148 319.971 103.839 319.842 96.4016C319.745 88.9802 319.923 81.6554 320.357 74.4433C320.744 64.9613 320.937 55.5759 320.937 46.3032C320.937 37.0304 320.937 27.7577 320.937 18.485C320.937 17.4547 321.034 16.7463 321.259 16.36C321.259 14.5247 322.289 13.3818 324.35 12.9471C328.891 12.3514 333.432 11.8363 337.94 11.4016C342.481 10.9831 347.037 10.6772 351.594 10.5001C353.22 10.5001 354.75 10.5001 356.167 10.5001C357.616 10.5001 359.081 10.5001 360.547 10.5001C362.994 10.5001 364.733 11.627 365.764 13.8486C367.213 17.1649 368.662 20.4651 370.079 23.7653C371.528 27.0816 372.88 30.3818 374.136 33.6819C375.972 37.8032 377.711 41.9727 379.353 46.1744C381.028 50.3922 382.896 54.5456 384.956 58.6668C389.884 68.1649 394.633 77.6469 399.19 87.1289C399.577 87.7407 399.915 88.288 400.221 88.8032C400.559 89.3183 400.929 90.091 401.316 91.1213Z" fill="#4D4D4D"/>
<path d="M589.268 91.1213C590.298 89.4954 590.91 88.2719 591.135 87.4509C593.84 82.0901 596.481 76.8259 599.057 71.6744C601.634 66.5229 604.242 61.3713 606.915 56.2198C609.185 51.503 611.359 46.3515 613.42 40.7653C615.255 36.4348 617.059 32.0077 618.83 27.5001C620.585 22.9604 622.501 18.6138 624.562 14.4925C625.754 11.8363 627.911 10.5001 631.003 10.5001C635.334 10.5001 639.601 10.6128 643.82 10.8221C648.07 10.9992 652.353 11.4016 656.701 12.0456C658.971 12.2227 660.968 12.8827 662.691 14.0418C664.446 15.1687 665.653 17.1649 666.297 20.0304C666.893 22.3164 667.296 24.699 667.521 27.1782C667.73 29.6251 667.924 32.1043 668.101 34.5835C669.131 42.8259 669.534 51.1327 669.324 59.5039C669.147 67.8429 669.067 76.2302 669.067 84.6819C668.841 97.4319 668.68 110.166 668.551 122.868C668.455 135.537 668.31 148.239 668.101 160.989C668.101 165.931 668.197 170.938 668.423 175.993C668.632 181.064 668.841 186.07 669.067 190.996C669.276 197.178 669.389 203.424 669.389 209.735C669.389 216.013 669.469 222.227 669.646 228.409C669.646 230.647 669.035 232.192 667.843 233.046C666.974 233.432 666.04 233.818 665.009 234.205C663.979 234.623 662.948 234.945 661.918 235.171C660.275 235.38 658.536 235.38 656.701 235.171C653.819 234.784 650.872 234.736 647.877 235.042C644.866 235.332 641.823 235.493 638.731 235.493C637.91 235.702 636.993 235.815 635.962 235.815C634.932 235.815 633.901 235.815 632.871 235.815C631.019 235.589 629.425 234.816 628.104 233.496C626.768 232.176 626.108 230.566 626.108 228.667C625.882 221.68 625.721 214.79 625.593 207.996C625.496 201.171 625.464 194.264 625.464 187.262C625.238 174.512 625.142 161.858 625.142 149.269C625.142 136.696 625.142 124.123 625.142 111.534C625.142 111.148 624.949 110.536 624.562 109.667C624.337 109.892 624.127 110.166 623.918 110.504C623.693 110.81 623.596 111.148 623.596 111.534C622.775 113.595 621.954 115.768 621.149 118.038C620.327 120.324 619.41 122.594 618.379 124.864C617.735 126.506 616.994 128.196 616.189 129.951C615.368 131.722 614.547 133.525 613.742 135.36C613.098 136.777 612.518 138.226 612.003 139.674C611.488 141.139 610.811 142.572 610.006 143.989C609.185 145.663 608.3 147.386 607.366 149.14C606.464 150.863 605.578 152.553 604.725 154.227C603.308 156.9 601.907 159.669 600.539 162.534C599.202 165.416 597.834 168.201 596.417 170.905C596.191 171.726 595.773 172.499 595.129 173.224C594.517 173.964 594.034 174.624 593.647 175.22C592.778 176.685 591.425 177.377 589.59 177.28C587.738 177.152 586.305 176.572 585.274 175.542C584.019 173.868 582.988 172.258 582.183 170.712C581.362 169.167 580.541 167.686 579.736 166.269C578.27 163.404 576.805 160.458 575.356 157.447C573.939 154.453 572.49 151.507 571.041 148.625C568.593 143.264 566.114 138 563.634 132.849C561.138 127.697 558.965 122.352 557.129 116.815C556.904 115.575 556.501 114.4 555.905 113.273C555.293 112.114 554.778 110.826 554.36 109.409C553.925 110.021 553.716 110.568 553.716 111.083C553.716 111.599 553.716 112.082 553.716 112.5C553.716 118.263 553.716 124.027 553.716 129.822C553.716 135.585 553.716 141.445 553.716 147.402C553.538 159.556 553.393 171.775 553.265 184.042C553.168 196.277 553.023 208.495 552.814 220.682C552.814 222.099 552.814 223.644 552.814 225.318C552.814 226.96 552.814 228.586 552.814 230.212C552.379 233.947 550.431 235.815 546.953 235.815C544.666 235.815 542.283 235.702 539.804 235.493C537.356 235.267 534.877 235.171 532.397 235.171C531.576 234.945 530.594 234.849 529.434 234.849C528.307 234.849 527.245 234.849 526.214 234.849C523.928 234.849 521.545 234.881 519.065 234.977C516.618 235.106 514.17 235.171 511.723 235.171C510.048 235.171 508.696 234.35 507.665 232.724C506.844 230.888 506.538 229.021 506.764 227.121C506.973 219.314 507.118 211.506 507.214 203.682C507.295 195.826 507.44 188.099 507.665 180.5C507.665 174.318 507.858 168.185 508.245 162.083C508.664 155.998 508.792 149.849 508.631 143.667C508.406 139.546 508.245 135.344 508.116 131.046C508.019 126.715 507.987 122.481 507.987 118.36C507.987 111.148 507.923 103.839 507.794 96.4016C507.697 88.9802 507.875 81.6554 508.309 74.4433C508.696 64.9613 508.889 55.5759 508.889 46.3032C508.889 37.0304 508.889 27.7577 508.889 18.485C508.889 17.4547 508.986 16.7463 509.211 16.36C509.211 14.5247 510.241 13.3818 512.302 12.9471C516.843 12.3514 521.384 11.8363 525.892 11.4016C530.433 10.9831 534.989 10.6772 539.546 10.5001C541.172 10.5001 542.702 10.5001 544.119 10.5001C545.568 10.5001 547.033 10.5001 548.499 10.5001C550.946 10.5001 552.685 11.627 553.716 13.8486C555.165 17.1649 556.614 20.4651 558.031 23.7653C559.48 27.0816 560.832 30.3818 562.088 33.6819C563.924 37.8032 565.663 41.9727 567.305 46.1744C568.98 50.3922 570.848 54.5456 572.909 58.6668C577.836 68.1649 582.586 77.6469 587.142 87.1289C587.529 87.7407 587.867 88.288 588.173 88.8032C588.511 89.3183 588.881 90.091 589.268 91.1213Z" fill="#4D4D4D"/>
<path d="M697.163 128.212C697.582 111.132 697.888 95.1137 698.065 80.1743C698.274 65.2349 698.483 50.5531 698.709 36.1289C698.709 33.859 698.644 31.6535 698.516 29.4963C698.419 27.3069 698.387 25.1819 698.387 23.1213C698.387 22.7349 698.338 22.2842 698.258 21.769C698.161 21.2539 698.21 20.6743 698.387 20.0304C698.387 15.9092 700.544 13.5588 704.892 12.947C706.341 12.947 707.79 12.947 709.207 12.947C710.656 12.947 712.121 12.947 713.587 12.947C716.453 12.947 719.383 12.947 722.346 12.947C725.341 12.947 728.175 12.947 730.847 12.947C731.491 12.947 732.071 12.9148 732.586 12.8183C733.102 12.6895 733.552 12.6251 733.939 12.6251C740.541 12.6251 747.142 12.5929 753.712 12.4963C760.313 12.3675 766.818 12.3031 773.227 12.3031C774.853 12.3031 776.543 12.3675 778.315 12.4963C780.07 12.5929 781.873 12.6251 783.725 12.6251C786.591 12.6251 789.473 12.6895 792.355 12.8183C795.27 12.9148 798.168 12.947 801.05 12.947C802.499 12.947 803.948 12.947 805.365 12.947C806.814 12.947 808.263 12.8504 809.68 12.6251C810.099 12.4158 811.049 12.3031 812.514 12.3031C817.828 12.5285 820.71 15.6194 821.145 21.5758C821.354 26.341 821.499 31.1544 821.595 36.0001C821.724 40.8135 821.869 45.5948 822.046 50.3599C822.256 52.2113 821.66 54.2719 820.243 56.5417C819.373 57.572 818.391 58.2482 817.28 58.538C816.153 58.8438 814.978 59.1014 813.738 59.3107C810.646 59.5361 807.491 59.697 804.27 59.8258C801.082 59.9224 797.958 60.0512 794.867 60.2122C790.52 60.4376 786.237 60.5342 781.986 60.5342C777.767 60.5342 773.516 60.5342 769.233 60.5342C765.707 60.7595 762.084 60.9688 758.349 61.1781C754.645 61.4035 751.071 61.6933 747.593 62.0796C746.337 62.305 745.612 63.0294 745.403 64.269C745.403 68.7766 745.339 73.2037 745.21 77.5342C745.113 81.8808 744.968 86.2113 744.759 90.5417C744.759 91.7974 744.904 92.5219 745.21 92.7311C745.548 92.9082 746.24 92.9887 747.271 92.9887C750.749 92.9887 754.243 92.9565 757.769 92.8599C761.279 92.7311 764.677 92.6667 767.945 92.6667C772.277 92.5058 776.608 92.4575 780.955 92.538C785.287 92.6346 789.521 92.6667 793.643 92.6667C794.674 92.6667 795.704 92.6667 796.735 92.6667C797.765 92.6667 798.796 92.6667 799.826 92.6667C800.857 92.6667 801.453 92.7794 801.63 92.9887C801.839 93.2141 802.048 93.8258 802.274 94.8561C802.483 96.3211 802.628 97.8183 802.725 99.3637C802.853 100.909 802.918 102.503 802.918 104.129C803.127 107.445 803.24 110.858 803.24 114.368C803.24 117.845 803.24 121.354 803.24 124.864C803.24 127.311 801.887 128.76 799.182 129.178C797.765 129.178 796.284 129.178 794.738 129.178C793.192 129.178 791.679 129.178 790.23 129.178C786.913 129.403 783.725 129.725 780.633 130.144C777.542 130.53 774.338 130.836 771.037 131.046C767.559 131.223 764.017 131.416 760.41 131.625C756.803 131.85 753.228 132.172 749.718 132.591C747.657 132.591 746.401 132.752 745.983 133.042C745.596 133.348 745.403 134.523 745.403 136.583C745.403 142.17 745.403 147.756 745.403 153.326C745.403 158.864 745.5 164.514 745.725 170.261C745.725 173.352 745.725 176.508 745.725 179.727C745.725 182.915 745.725 186.151 745.725 189.451C745.725 190.707 745.806 191.479 745.983 191.769C746.192 192.075 747.029 192.123 748.495 191.898C753.647 191.898 758.832 191.898 764.081 191.898C769.362 191.898 774.579 191.801 779.732 191.576C782.598 191.576 785.528 191.495 788.491 191.318C791.486 191.109 794.432 190.9 797.314 190.674C799.198 190.674 801.114 190.739 803.047 190.868C805.011 190.964 806.927 190.996 808.779 190.996C809.374 191.222 809.97 191.286 810.582 191.189C811.226 191.061 811.87 190.996 812.514 190.996C815.992 190.352 818.568 191.576 820.243 194.667C820.404 194.892 820.501 195.053 820.501 195.182C820.501 195.279 820.501 195.311 820.501 195.311C821.95 196.132 822.787 197.275 823.012 198.724C823.222 200.14 823.334 201.476 823.334 202.716C823.495 206.242 823.801 209.799 824.236 213.405C824.655 217.011 824.767 220.553 824.558 224.03C824.558 225.705 824.188 227.218 823.463 228.538C822.723 229.874 821.853 231.162 820.823 232.402C820.436 232.997 819.873 233.335 819.148 233.432C818.407 233.561 817.635 233.625 816.829 233.625C811.677 233.834 806.524 233.947 801.372 233.947C796.22 233.947 790.954 234.044 785.593 234.269C782.92 234.269 780.311 234.35 777.735 234.527C775.159 234.736 772.405 234.945 769.491 235.171C765.578 235.38 761.505 235.493 757.254 235.493C753.035 235.493 748.881 235.493 744.759 235.493C741.877 235.702 738.93 235.895 735.935 236.072C732.973 236.281 730.042 236.491 727.176 236.716C721.203 237.135 715.132 237.135 708.949 236.716C707.484 236.716 706.019 236.458 704.57 235.943C703.153 235.428 701.607 235.058 699.933 234.849C698.902 234.462 698.194 233.947 697.807 233.303C696.986 232.112 696.213 230.84 695.488 229.504C694.748 228.136 694.49 226.638 694.716 224.996C694.925 220.231 695.038 215.595 695.038 211.087C695.038 206.547 695.118 202.008 695.295 197.5C695.505 190.9 695.65 184.396 695.746 177.989C695.875 171.598 696.036 165.223 696.261 158.864C696.471 152.859 696.616 147.128 696.712 141.671C696.793 136.229 696.938 131.738 697.163 128.212Z" fill="#4D4D4D"/>
<path d="M896.594 202.716C896.368 207.272 896.159 211.86 895.95 216.496C895.724 221.133 895.515 225.705 895.306 230.212C895.129 234.543 892.987 236.716 888.865 236.716C886.579 236.716 884.308 236.716 882.038 236.716C879.752 236.716 877.481 236.716 875.211 236.716C872.973 236.491 870.719 236.281 868.448 236.072C866.162 235.895 863.892 235.814 861.621 235.814C860.8 235.589 859.915 235.492 858.981 235.492C858.079 235.492 857.113 235.492 856.083 235.492C852.347 235.492 850.576 233.641 850.801 229.955C851.22 218.621 851.59 207.288 851.896 195.955C852.186 184.621 852.234 173.288 852.025 161.955C852.025 149.768 852.025 137.662 852.025 125.636C852.025 113.579 852.025 101.553 852.025 89.5758C851.848 85.68 851.767 81.7681 851.767 77.8561C851.767 73.9603 851.542 70.0484 851.123 66.1364C851.123 63.6573 850.962 61.1781 850.672 58.7311C850.366 56.2519 850.109 53.7567 849.9 51.2614C849.9 49.6355 849.835 47.9451 849.706 46.1743C849.61 44.4196 849.674 42.7292 849.9 41.0872C850.109 37.5777 850.254 34.1165 850.35 30.7198C850.431 27.3391 850.576 23.8779 850.801 20.3523C851.011 16.2311 853.394 14.0739 857.95 13.8485C861.042 13.6876 864.133 13.6393 867.225 13.7198C870.316 13.8163 873.295 13.8485 876.177 13.8485C880.074 13.8485 883.874 13.8485 887.577 13.8485C891.313 13.8485 895.016 13.9612 898.719 14.1705C903.646 14.3959 908.59 14.5569 913.533 14.6857C918.508 14.7823 923.58 14.9271 928.733 15.1364C929.763 15.1364 930.729 15.1364 931.631 15.1364C932.565 15.1364 933.45 15.1364 934.271 15.1364C936.107 15.1364 937.959 15.2491 939.81 15.4584C941.694 15.6355 943.562 16.1345 945.414 16.9395C946.009 17.1648 946.605 17.3258 947.217 17.4546C947.861 17.5512 948.505 17.6961 949.149 17.9054C957.168 20.1913 963.657 24.5057 968.6 30.8485C969.018 31.4925 969.502 32.072 970.017 32.5872C970.532 33.1023 970.87 33.5531 971.047 33.9395C971.691 34.8088 972.271 35.5976 972.786 36.322C973.301 37.0143 973.752 37.7709 974.139 38.5758C977.053 44.5966 979.372 50.7946 981.095 57.1857C982.85 63.5446 983.945 70.1288 984.379 76.9546C984.975 84.3438 985.281 91.7491 985.281 99.1705C985.49 105.143 984.862 110.955 983.413 116.621C981.996 122.288 980.145 127.81 977.874 133.171C976.844 135.875 975.443 138.515 973.688 141.091C971.917 143.667 970.113 146.178 968.278 148.625C967.457 149.881 966.474 150.975 965.315 151.909C964.188 152.811 963.125 153.777 962.095 154.807C961.064 155.451 960.871 156.288 961.515 157.318C963.141 160.409 964.768 163.5 966.41 166.591C968.085 169.682 969.63 172.773 971.047 175.864C971.901 177.071 972.593 178.359 973.108 179.727C973.624 181.063 974.171 182.432 974.783 183.849C976.409 187.583 978.164 191.415 980.064 195.311C981.256 198.627 982.479 201.814 983.735 204.905C984.975 207.996 986.215 211.2 987.471 214.5C987.857 215.321 988.308 216.094 988.823 216.818C989.339 217.51 989.693 218.364 989.918 219.394C991.367 222.099 992.511 224.674 993.332 227.121C993.75 228.796 993.461 230.405 992.43 231.951C991.4 233.496 990.047 234.462 988.372 234.849C987.551 235.058 986.73 235.171 985.925 235.171C985.104 235.171 984.186 235.267 983.156 235.492C978.599 235.492 974.107 235.492 969.695 235.492C965.267 235.492 960.775 235.492 956.234 235.492C955.413 235.492 954.495 235.492 953.464 235.492C952.434 235.492 951.403 235.492 950.373 235.492C948.698 235.911 947.555 235.299 946.959 233.625C946.959 233.625 946.734 233.432 946.315 233.046C944.254 229.101 942.081 225.238 939.81 221.455C937.572 217.639 935.431 213.776 933.37 209.864C931.309 205.533 929.28 201.203 927.316 196.856C925.383 192.526 923.467 188.292 921.583 184.171C920.762 182.11 919.844 180.162 918.814 178.311C917.783 176.475 916.753 174.624 915.722 172.773C915.497 171.533 914.579 170.905 912.953 170.905C912.132 171.131 911.15 171.276 909.99 171.356C908.863 171.453 907.801 171.485 906.77 171.485C905.305 171.71 903.952 171.871 902.712 172C901.505 172.097 900.168 172.242 898.719 172.451C897.898 172.451 897.383 172.563 897.174 172.773C896.948 172.95 896.852 173.546 896.852 174.576C896.674 178.311 896.594 182.094 896.594 185.909C896.594 189.692 896.594 193.556 896.594 197.5C896.594 198.321 896.594 199.142 896.594 199.947C896.594 200.768 896.594 201.686 896.594 202.716ZM897.174 93.6326C897.383 93.6326 897.496 93.6326 897.496 93.6326C897.496 98.7841 897.528 103.936 897.624 109.087C897.753 114.239 897.818 119.39 897.818 124.542C897.818 125.363 897.753 126.184 897.624 126.989C897.528 127.81 897.592 128.727 897.818 129.758C897.818 131.013 898.526 131.625 899.943 131.625C902.648 131.625 905.321 131.593 907.994 131.496C910.699 131.367 913.275 131.11 915.722 130.724C919.619 130.08 923.226 129.162 926.543 127.955C929.409 127.101 931.695 125.041 933.37 121.773C933.579 120.324 934.207 118.972 935.238 117.716C936.268 115.269 937.299 112.725 938.329 110.053C939.36 107.349 939.955 104.563 940.132 101.682C940.776 97.5607 941.098 93.4877 941.098 89.447C941.098 85.4224 940.986 81.4461 940.776 77.5341C940.776 73.0266 939.633 68.5029 937.363 63.947C936.542 61.6771 934.996 60.019 932.726 58.9887C930.665 57.9584 928.378 57.1535 925.899 56.5417C923.451 55.8978 920.972 55.5758 918.492 55.5758C915.223 55.5758 911.987 55.6402 908.767 55.769C905.579 55.8656 902.342 55.8978 899.041 55.8978C898.011 55.8978 897.383 56.0105 897.174 56.2198C896.948 56.4451 896.852 57.0569 896.852 58.0872C896.852 63.8504 896.884 69.7264 896.98 75.7311C897.109 81.7037 897.174 87.6762 897.174 93.6326Z" fill="#4D4D4D"/>
<path d="M1244.7 4.99422C1250.45 6.12111 1254.75 8.06903 1257.58 10.8541C1260.45 13.6069 1261.9 16.8266 1261.9 20.5132C1261.9 26.6145 1260.17 31.0577 1256.74 33.8427C1253.35 36.5955 1247.95 37.6902 1240.58 37.1268C1223.96 35.8389 1210.98 34.9696 1201.68 34.4866C1192.35 34.0198 1180.12 33.6978 1164.97 33.5207C1158.14 67.4885 1151.86 101.633 1146.16 135.971C1144.1 148.512 1141.94 163.049 1139.72 179.566C1137.53 196.099 1136.06 209.429 1135.34 219.555C1134.95 224.932 1132.71 229.053 1128.64 231.918C1124.6 234.8 1119.72 236.233 1114.02 236.233C1107.92 236.233 1103.2 234.752 1099.85 231.79C1096.53 228.828 1094.89 224.948 1094.89 220.134C1094.89 215.723 1095.57 208.399 1096.95 198.176C1098.37 187.921 1100 177.151 1101.85 165.85C1103.86 154.614 1105.42 144.826 1106.55 136.487C1108.56 122.497 1110.86 108.588 1113.44 94.7594C1116.02 80.8986 1118.61 67.7783 1121.23 55.4147C1121.75 52.6296 1122.36 49.426 1123.1 45.82C1123.87 42.2139 1124.71 38.2054 1125.61 33.7783C1107.53 34.3418 1093.31 35.8228 1082.98 38.2215C1072.62 40.6363 1065.28 44.0008 1060.95 48.3313C1056.6 52.6779 1054.44 58.248 1054.44 65.0738C1054.44 71.3522 1056.28 77.3569 1059.98 83.1041C1060.71 84.392 1061.08 85.7764 1061.08 87.2253C1061.08 90.7509 1058.99 94.0349 1054.83 97.0776C1050.71 100.136 1046.43 101.65 1042.01 101.65C1038.87 101.65 1036.28 100.732 1034.22 98.8806C1030.52 95.7575 1027.47 91.2821 1025.08 85.4866C1022.71 79.659 1021.53 73.0425 1021.53 65.6533C1021.53 49.9412 1026.64 37.3522 1036.86 27.8541C1047.12 18.3238 1062.72 11.3531 1083.69 6.92603C1104.63 2.51505 1131.54 0.293457 1164.39 0.293457C1184.69 0.293457 1200.9 0.663723 1213.01 1.38815C1225.12 2.12868 1235.68 3.31997 1244.7 4.99422Z" fill="#1D4076"/>
<path d="M1341.61 173.062C1344.01 173.062 1345.89 174.189 1347.28 176.411C1348.69 178.6 1349.4 181.659 1349.4 185.555C1349.4 192.944 1347.63 198.659 1344.12 202.684C1337.29 211.023 1327.63 218.702 1315.14 225.737C1302.68 232.74 1289.34 236.233 1275.14 236.233C1255.77 236.233 1240.72 230.985 1229.99 220.456C1219.3 209.896 1213.96 195.504 1213.96 177.248C1213.96 164.498 1216.61 152.633 1221.94 141.638C1227.31 130.659 1234.73 121.934 1244.23 115.494C1253.76 109.023 1264.53 105.771 1276.56 105.771C1287.25 105.771 1295.82 108.974 1302.26 115.365C1308.73 121.724 1311.98 130.353 1311.98 141.252C1311.98 153.97 1307.41 164.884 1298.26 174.028C1289.12 183.172 1273.66 190.433 1251.89 195.793C1256.53 204.261 1265.3 208.479 1278.23 208.479C1286.51 208.479 1295.96 205.581 1306.57 199.786C1317.22 193.99 1326.41 186.376 1334.14 176.926C1336.36 174.35 1338.86 173.062 1341.61 173.062ZM1271.86 132.945C1265.03 132.945 1259.25 136.921 1254.53 144.858C1249.8 152.762 1247.45 162.357 1247.45 173.642V174.157C1258.35 171.581 1266.93 167.718 1273.21 162.566C1279.47 157.382 1282.61 151.362 1282.61 144.536C1282.61 141.026 1281.65 138.209 1279.72 136.1C1277.78 134.007 1275.16 132.945 1271.86 132.945Z" fill="#1D4076"/>
<path d="M1379.85 236.233C1361.71 236.233 1347.64 231.114 1337.59 220.843C1327.55 210.588 1322.52 197.065 1322.52 180.275C1322.52 165.335 1325.45 152.247 1331.35 140.994C1337.27 129.709 1344.94 121.016 1354.34 114.915C1363.74 108.829 1373.61 105.771 1383.97 105.771C1394.14 105.771 1402.03 108.781 1407.67 114.786C1413.29 120.807 1416.11 128.502 1416.11 137.903C1416.11 145.679 1414.38 152.247 1410.95 157.608C1407.56 162.936 1403.1 165.593 1397.56 165.593C1394.03 165.593 1391.2 164.788 1389.06 163.146C1386.95 161.472 1385.9 159.153 1385.9 156.191C1385.9 154.903 1386.09 153.422 1386.48 151.748C1386.87 150.074 1387.14 148.882 1387.32 148.142C1388.22 145.405 1388.67 142.829 1388.67 140.415C1388.67 138.016 1388.06 136.165 1386.87 134.877C1385.66 133.589 1383.97 132.945 1381.78 132.945C1377.53 132.945 1373.55 134.845 1369.86 138.612C1366.16 142.395 1363.2 147.53 1360.97 154.002C1358.78 160.441 1357.69 167.525 1357.69 175.252C1357.69 196.679 1367 207.384 1385.64 207.384C1393.19 207.384 1401.36 204.857 1410.12 199.786C1418.91 194.731 1427.57 187.1 1436.07 176.926C1438.26 174.35 1440.74 173.062 1443.54 173.062C1445.94 173.062 1447.83 174.189 1449.21 176.411C1450.58 178.6 1451.27 181.659 1451.27 185.555C1451.27 192.558 1449.5 198.273 1445.99 202.684C1437.31 213.421 1426.93 221.712 1414.82 227.54C1402.74 233.335 1391.08 236.233 1379.85 236.233Z" fill="#1D4076"/>
</svg>
